<svg width="300" height="300" viewBox="0 0 300 300" xmlns="http://www.w3.org/2000/svg">
  <rect width="300" height="300" fill="#f0f0f0"/>
  <text x="50%" y="50%" font-family="Arial" font-size="20" fill="#888" text-anchor="middle">Image not available</text>
  <path d="M150,80 C115,80 90,105 90,140 C90,175 115,200 150,200 C185,200 210,175 210,140 C210,105 185,80 150,80 Z M110,140 C110,116 128,98 150,98 C172,98 190,116 190,140 C190,164 172,182 150,182 C128,182 110,164 110,140 Z" fill="#ccc"/>
  <path d="M130,125 C125,125 120,130 120,135 C120,140 125,145 130,145 C135,145 140,140 140,135 C140,130 135,125 130,125 Z" fill="#ccc"/>
  <path d="M170,125 C165,125 160,130 160,135 C160,140 165,145 170,145 C175,145 180,140 180,135 C180,130 175,125 170,125 Z" fill="#ccc"/>
  <path d="M130,165 L170,165 C170,165 170,155 150,155 C130,155 130,165 130,165 Z" fill="#ccc"/>
</svg>